<mxfile host="65bd71144e">
    <diagram id="LNUeIHjU-b9vn8MX6aT7" name="Page-1">
        <mxGraphModel dx="768" dy="454" grid="1" gridSize="10" guides="1" tooltips="1" connect="1" arrows="1" fold="1" page="1" pageScale="1" pageWidth="850" pageHeight="1100" math="0" shadow="0">
            <root>
                <mxCell id="0"/>
                <mxCell id="1" parent="0"/>
                <mxCell id="2" value="vehiculo&amp;nbsp;&lt;br&gt;- marca : string&amp;nbsp;&lt;br&gt;- modelo : string&lt;br&gt;- aÃ±o : number&lt;br&gt;- estaPrendido : boolean&lt;br&gt;# velocidadActual : number&amp;nbsp;" style="shape=ext;double=1;rounded=1;whiteSpace=wrap;html=1;fontStyle=1" vertex="1" parent="1">
                    <mxGeometry x="320" y="40" width="310" height="150" as="geometry"/>
                </mxCell>
                <mxCell id="3" value="autoDeportivo&lt;br&gt;-accesoriosDeportivos : string[]" style="shape=ext;double=1;rounded=1;whiteSpace=wrap;html=1;" vertex="1" parent="1">
                    <mxGeometry x="40" y="300" width="320" height="70" as="geometry"/>
                </mxCell>
                <mxCell id="4" value="+prender () : void&lt;br&gt;+apagar () : void&lt;br&gt;{abstract} acelerar () : void&lt;br&gt;+frenar () : void&lt;br&gt;+obtenerInfo () : void&amp;nbsp;" style="shape=ext;double=1;rounded=1;whiteSpace=wrap;html=1;" vertex="1" parent="1">
                    <mxGeometry x="320" y="190" width="310" height="80" as="geometry"/>
                </mxCell>
                <mxCell id="6" value="+prender () : void&lt;br&gt;+apagar () : void&lt;br&gt;+acelerar () : void&lt;br&gt;+frenar () : void&lt;br&gt;+obtenerInfo () : void&amp;nbsp;" style="shape=ext;double=1;rounded=1;whiteSpace=wrap;html=1;" vertex="1" parent="1">
                    <mxGeometry x="40" y="370" width="320" height="100" as="geometry"/>
                </mxCell>
                <mxCell id="7" value="" style="endArrow=classic;html=1;entryX=-0.012;entryY=0.631;entryDx=0;entryDy=0;entryPerimeter=0;" edge="1" parent="1" target="2">
                    <mxGeometry width="50" height="50" relative="1" as="geometry">
                        <mxPoint x="200" y="300" as="sourcePoint"/>
                        <mxPoint x="250" y="250" as="targetPoint"/>
                        <Array as="points"/>
                    </mxGeometry>
                </mxCell>
            </root>
        </mxGraphModel>
    </diagram>
</mxfile>